<?xml version="1.0" encoding="UTF-8" standalone="no"?>
<!-- Created with Inkscape (http://www.inkscape.org/) -->

<svg
   xmlns:dc="http://purl.org/dc/elements/1.1/"
   xmlns:cc="http://creativecommons.org/ns#"
   xmlns:rdf="http://www.w3.org/1999/02/22-rdf-syntax-ns#"
   xmlns:svg="http://www.w3.org/2000/svg"
   xmlns="http://www.w3.org/2000/svg"
   xmlns:sodipodi="http://sodipodi.sourceforge.net/DTD/sodipodi-0.dtd"
   xmlns:inkscape="http://www.inkscape.org/namespaces/inkscape"
   width="72"
   height="72"
   id="svg2985"
   version="1.1"
   inkscape:version="0.48.2 r9819"
   sodipodi:docname="bluetooth_rx.svg">
  <defs
     id="defs2987" />
  <sodipodi:namedview
     id="base"
     pagecolor="#ffffff"
     bordercolor="#666666"
     borderopacity="1.0"
     inkscape:pageopacity="0.0"
     inkscape:pageshadow="2"
     inkscape:zoom="15.839192"
     inkscape:cx="34.559882"
     inkscape:cy="46.564771"
     inkscape:document-units="px"
     inkscape:current-layer="layer1"
     showgrid="false"
     inkscape:window-width="1918"
     inkscape:window-height="1040"
     inkscape:window-x="0"
     inkscape:window-y="19"
     inkscape:window-maximized="1"
     showguides="true"
     inkscape:guide-bbox="true" />
  <metadata
     id="metadata2990">
    <rdf:RDF>
      <cc:Work
         rdf:about="">
        <dc:format>image/svg+xml</dc:format>
        <dc:type
           rdf:resource="http://purl.org/dc/dcmitype/StillImage" />
        <dc:title></dc:title>
      </cc:Work>
    </rdf:RDF>
  </metadata>
  <g
     inkscape:label="Ebene 1"
     inkscape:groupmode="layer"
     id="layer1"
     transform="translate(0,-980.3622)">
    <path
       style="fill:#999999;fill-rule:evenodd;stroke:#000000;stroke-width:1px;stroke-linecap:butt;stroke-linejoin:miter;stroke-opacity:1"
       d="m 19.435748,986.5865 -7.09375,12.4375 -7.0937503,12.4376 7.0000003,-0.031 0,34.5 14.625,0 0,-34.5937 7,-0.031 -7.21875,-12.3438 -7.21875,-12.375 z"
       id="path3035"
       inkscape:connector-curvature="0" />
    <path
       style="fill:#999999;fill-rule:evenodd;stroke:#000000;stroke-width:1px;stroke-linecap:butt;stroke-linejoin:miter;stroke-opacity:1"
       d="m 52.225895,1045.4162 7.0938,-12.4375 7.0937,-12.4375 -7,0.031 0,-34.50002 -14.625,0 0,34.59372 -7,0.031 7.2188,12.3437 7.2187,12.375 z"
       id="path3035-7"
       inkscape:connector-curvature="0" />
    <path
       style="fill:#0000ff"
       d="m 12.762564,47.779536 0,-17.235728 -3.2198615,0 c -1.7709237,0 -3.2198613,-0.03692 -3.2198613,-0.08204 0,-0.183284 13.0701418,-23.0002805 13.1476798,-22.952359 0.04612,0.028507 0.554201,0.8618916 1.129059,1.8519662 0.574856,0.9900748 3.563972,6.1088498 6.64248,11.3750548 3.078507,5.266206 5.597286,9.598813 5.597286,9.628017 0,0.0292 -1.477348,0.0531 -3.282996,0.0531 l -3.282996,0 0,17.298862 0,17.298863 -6.755395,0 -6.755395,0 0,-17.235728 z"
       id="path3042"
       inkscape:connector-curvature="0"
       transform="translate(0,980.3622)" />
    <path
       style="fill:#dc143c"
       d="m 45.51605,52.423919 -6.691087,-11.462913 3.25751,-0.03366 3.257511,-0.03366 0,-17.296765 0,-17.2967662 6.755395,0 6.755395,0 0,17.2336322 0,17.23363 3.264236,0.03366 3.264237,0.03366 -6.488294,11.364216 C 55.322392,58.449272 52.358667,63.635994 52.304898,63.725001 52.242113,63.828934 49.81331,59.78582 45.51605,52.423919 l 0,0 z"
       id="path3044"
       inkscape:connector-curvature="0"
       transform="translate(0,980.3622)" />
    <path
       style="fill:#0083d7"
       d="m 12.762564,47.693316 0,-17.23356 -3.157697,-0.03374 -3.1576967,-0.03374 1.3756314,-2.462247 C 11.064143,22.128351 19.352386,7.7364631 19.454824,7.7319383 c 0.102903,-0.00455 0.837514,1.2338528 6.625903,11.1698617 3.034357,5.208599 5.765963,9.896338 6.070236,10.417198 l 0.553226,0.947018 -3.215417,0.0337 -3.215418,0.0337 0,17.296732 0,17.296731 -6.755395,0 -6.755395,0 0,-17.23356 z"
       id="path3046"
       inkscape:connector-curvature="0"
       transform="translate(0,980.3622)" />
    <path
       style="fill:#003399"
       d="m 11.752411,48.744701 0,-17.318594 -3.5986683,0.08835 c -1.9792676,0.04859 -3.5986684,0.0567 -3.5986684,0.01803 0,-0.03868 3.3360987,-5.922237 7.4135527,-13.074575 5.729363,-10.049983 7.446616,-12.96834 7.559089,-12.8461709 0.08004,0.086945 3.244204,5.4708529 7.031466,11.9642399 3.787261,6.493387 7.146412,12.246521 7.46478,12.784743 l 0.578851,0.978585 -2.693584,0 c -1.481471,0 -3.128315,0.03675 -3.659653,0.08166 l -0.966069,0.08166 0,17.280335 0,17.280334 -7.765548,0 -7.765548,0 0,-17.318596 z m 14.647212,-0.86415 0,-17.298862 2.115007,-0.01483 c 1.163254,-0.0082 2.660738,-0.05077 3.327743,-0.0947 l 1.212736,-0.07987 -6.765673,-11.586154 C 22.568315,12.433746 19.477189,7.235501 19.420266,7.2544752 19.305105,7.2928626 6.0714143,30.457884 6.0707329,30.622277 c -2.364e-4,0.05705 1.4769183,0.06287 3.282566,0.01293 l 3.2829961,-0.09079 0,17.317496 0,17.317495 6.881664,0 6.881664,0 0,-17.298863 z"
       id="path3048"
       inkscape:connector-curvature="0"
       transform="translate(0,980.3622)" />
    <path
       style="fill:#0083d7"
       d="M 51.667385,64.944701 C 51.362541,64.414036 47.967481,58.595993 44.122808,52.015714 40.278135,45.435435 37.132494,40.023227 37.132494,39.988585 c 0,-0.03464 1.619401,-0.06298 3.598668,-0.06298 l 3.598669,0 0,-17.298863 0,-17.298862 7.765548,0 7.765547,0 0,17.235728 0,17.235728 3.598669,0 c 1.979268,0 3.598668,0.02471 3.598668,0.05491 0,0.04248 -14.753624,25.962021 -14.820757,26.037481 -0.0087,0.0098 -0.265276,-0.416355 -0.570121,-0.947018 z m 7.274746,-12.527389 c 3.626817,-6.349582 6.595719,-11.58731 6.597559,-11.639396 0.0018,-0.05209 -1.474004,-0.0947 -3.279651,-0.0947 l -3.282996,0 0,-17.235728 0,-17.2357275 -6.881664,0 -6.881665,0 0,17.2177395 0,17.217741 -0.776137,0.08112 c -0.426875,0.04462 -1.908958,0.08112 -3.293518,0.08112 -1.58755,0 -2.501835,0.04568 -2.475291,0.123677 0.159496,0.468667 13.45289,23.090158 13.55288,23.063062 0.06945,-0.01882 3.093665,-5.229329 6.720483,-11.57891 z"
       id="path3050"
       inkscape:connector-curvature="0"
       transform="translate(0,980.3622)" />
    <path
       style="fill:#0083d7"
       d="m 15.562946,66.094946 c 2.130518,-0.0194 5.653425,-0.01941 7.828682,-2.8e-5 2.175257,0.01938 0.432106,0.03526 -3.873669,0.03527 -4.305775,1.6e-5 -6.085531,-0.01584 -3.955013,-0.03524 z"
       id="path3052"
       inkscape:connector-curvature="0"
       transform="translate(0,980.3622)" />
    <path
       style="fill:#0083d7"
       d="m 15.953488,66.113279 c 0.04196,-0.04196 0.150866,-0.04644 0.242016,-0.01 0.100729,0.04031 0.07081,0.07023 -0.07629,0.07629 -0.133108,0.0055 -0.207686,-0.02436 -0.165728,-0.06632 z"
       id="path3054"
       inkscape:connector-curvature="0"
       transform="translate(0,980.3622)" />
    <path
       style="fill:#0066cc"
       d="m 11.752411,48.718747 0,-17.344549 -3.5543279,0.06404 c -2.0777249,0.03743 -3.5262543,0.01707 -3.4867518,-0.04901 0.037167,-0.06218 1.7585599,-3.09616 3.8253177,-6.742179 6.805231,-12.00528 10.881059,-19.0281956 10.978732,-18.917071 0.05006,0.056955 8.442945,14.369743 11.981309,20.432299 l 2.984686,5.113898 -3.567367,0.07192 c -1.962052,0.03956 -3.581573,0.08217 -3.598935,0.0947 -0.01736,0.01253 -0.03157,7.807267 -0.03157,17.321642 l 0,17.298862 -7.765548,0 -7.765548,0 0,-17.34455 z m 14.647212,-0.824432 0,-17.2851 3.272615,-0.04547 c 1.799938,-0.02501 3.309599,-0.08245 3.3548,-0.127658 C 33.159017,30.304106 19.794616,7.4950481 19.466482,7.2922504 19.309063,7.1949598 6.0703031,30.245006 6.0703031,30.61638 c 0,0.08395 1.1185492,0.105818 3.2829958,0.06419 l 3.2829961,-0.06314 0,17.280989 0,17.280989 6.881664,0 6.881664,0 0,-17.285099 0,0 z"
       id="path3056"
       inkscape:connector-curvature="0"
       transform="translate(0,980.3622)" />
    <path
       style="fill:#0066cc"
       d="m 12.762564,47.691148 c 0,-9.479651 -0.04262,-17.243428 -0.0947,-17.25284 -0.05209,-0.0094 -1.444767,-0.05203 -3.0948475,-0.0947 l -3.0001457,-0.07759 4.4569692,-7.828682 c 3.959568,-6.954996 6.910452,-12.069216 7.996026,-13.8580305 0.200194,-0.3298779 0.408933,-0.599778 0.463866,-0.599778 0.127279,0 -0.360589,-0.819991 6.867442,11.5425385 l 6.207866,10.617683 -3.05114,0.07734 c -1.678127,0.04254 -3.093756,0.08515 -3.145842,0.0947 -0.05209,0.0096 -0.0947,7.801854 -0.0947,17.316228 l 0,17.298863 -6.755395,0 -6.755395,0 0,-17.235728 z"
       id="path3058"
       inkscape:connector-curvature="0"
       transform="translate(0,980.3622)" />
    <path
       style="fill:#0099ff"
       d="m 11.752411,48.703298 0,-17.36 -3.4611957,-0.03356 -3.4611961,-0.03356 6.5305748,-11.427351 C 18.426401,7.4849074 19.459249,5.7474998 19.598308,5.9917374 c 0.04913,0.086288 3.388491,5.7821736 7.420805,12.6575246 l 7.331483,12.500638 -1.607942,0.08031 c -0.884367,0.04417 -2.474462,0.08678 -3.533544,0.0947 l -1.925603,0.01439 0,17.361997 0,17.361997 -7.765548,0 -7.765548,0 0,-17.359999 0,0 z m 14.647212,-0.740705 0,-17.216819 1.155819,-0.08204 c 0.635702,-0.04512 2.013613,-0.08282 3.062025,-0.08377 1.048414,-0.001 2.035431,-0.03635 2.193372,-0.07866 0.284647,-0.07626 0.282296,-0.08594 -0.268101,-1.103129 C 31.280305,27.065066 22.809286,12.590016 20.39175,8.6348897 L 19.518852,7.2068143 19.23993,7.5566149 C 18.484291,8.504276 6.0703031,30.181846 6.0703031,30.553697 c 0,0.117546 0.7813704,0.154261 3.2829958,0.154261 l 3.2829961,0 0,17.235728 0,17.235728 6.881664,0 6.881664,0 0,-17.216821 z"
       id="path3060"
       inkscape:connector-curvature="0"
       transform="translate(0,980.3622)" />
  </g>
</svg>
