<?xml version="1.0" encoding="UTF-8" standalone="no"?>
<!-- Created with Inkscape (http://www.inkscape.org/) -->

<svg
   xmlns:dc="http://purl.org/dc/elements/1.1/"
   xmlns:cc="http://creativecommons.org/ns#"
   xmlns:rdf="http://www.w3.org/1999/02/22-rdf-syntax-ns#"
   xmlns:svg="http://www.w3.org/2000/svg"
   xmlns="http://www.w3.org/2000/svg"
   xmlns:sodipodi="http://sodipodi.sourceforge.net/DTD/sodipodi-0.dtd"
   xmlns:inkscape="http://www.inkscape.org/namespaces/inkscape"
   width="72"
   height="72"
   id="svg2985"
   version="1.1"
   inkscape:version="0.48.2 r9819"
   sodipodi:docname="bluetooth_tx.svg">
  <defs
     id="defs2987" />
  <sodipodi:namedview
     id="base"
     pagecolor="#ffffff"
     bordercolor="#666666"
     borderopacity="1.0"
     inkscape:pageopacity="0.0"
     inkscape:pageshadow="2"
     inkscape:zoom="7.9195959"
     inkscape:cx="46.739569"
     inkscape:cy="20.819078"
     inkscape:document-units="px"
     inkscape:current-layer="layer1"
     showgrid="false"
     inkscape:window-width="1918"
     inkscape:window-height="1040"
     inkscape:window-x="0"
     inkscape:window-y="19"
     inkscape:window-maximized="1"
     showguides="true"
     inkscape:guide-bbox="true" />
  <metadata
     id="metadata2990">
    <rdf:RDF>
      <cc:Work
         rdf:about="">
        <dc:format>image/svg+xml</dc:format>
        <dc:type
           rdf:resource="http://purl.org/dc/dcmitype/StillImage" />
        <dc:title />
      </cc:Work>
    </rdf:RDF>
  </metadata>
  <g
     inkscape:label="Ebene 1"
     inkscape:groupmode="layer"
     id="layer1"
     transform="translate(0,-980.3622)">
    <path
       style="fill:#999999;fill-rule:evenodd;stroke:#000000;stroke-width:1px;stroke-linecap:butt;stroke-linejoin:miter;stroke-opacity:1"
       d="m 19.435748,986.5865 -7.09375,12.4375 -7.0937503,12.4376 7.0000003,-0.031 0,34.5 14.625,0 0,-34.5937 7,-0.031 -7.21875,-12.3438 -7.21875,-12.375 z"
       id="path3035"
       inkscape:connector-curvature="0" />
    <path
       style="fill:#999999;fill-rule:evenodd;stroke:#000000;stroke-width:1px;stroke-linecap:butt;stroke-linejoin:miter;stroke-opacity:1"
       d="m 52.225895,1045.4162 7.0938,-12.4375 7.0937,-12.4375 -7,0.031 0,-34.50002 -14.625,0 0,34.59372 -7,0.031 7.2188,12.3437 7.2187,12.375 z"
       id="path3035-7"
       inkscape:connector-curvature="0" />
    <path
       style="fill:#0000ff"
       d="m 12.762564,47.779536 0,-17.235728 -3.2198615,0 c -1.7709237,0 -3.2198613,-0.03692 -3.2198613,-0.08204 0,-0.183284 13.0701418,-23.0002805 13.1476798,-22.952359 0.04612,0.028507 0.554201,0.8618916 1.129059,1.8519662 0.574856,0.9900748 3.563972,6.1088498 6.64248,11.3750548 3.078507,5.266206 5.597286,9.598813 5.597286,9.628017 0,0.0292 -1.477348,0.0531 -3.282996,0.0531 l -3.282996,0 0,17.298862 0,17.298863 -6.755395,0 -6.755395,0 0,-17.235728 z"
       id="path3042"
       inkscape:connector-curvature="0"
       transform="translate(0,980.3622)" />
    <path
       style="fill:#0066cc"
       d="m 45.51605,52.423919 -6.691087,-11.462913 3.25751,-0.03366 3.257511,-0.03366 0,-17.296765 0,-17.2967662 6.755395,0 6.755395,0 0,17.2336322 0,17.23363 3.264236,0.03366 3.264237,0.03366 -6.488294,11.364216 C 55.322392,58.449272 52.358667,63.635994 52.304898,63.725001 52.242113,63.828934 49.81331,59.78582 45.51605,52.423919 l 0,0 z"
       id="path3044"
       inkscape:connector-curvature="0"
       transform="translate(0,980.3622)" />
    <path
       style="fill:#0083d7"
       d="m 12.762564,47.693316 0,-17.23356 -3.157697,-0.03374 -3.1576967,-0.03374 1.3756314,-2.462247 C 11.064143,22.128351 19.352386,7.7364631 19.454824,7.7319383 c 0.102903,-0.00455 0.837514,1.2338528 6.625903,11.1698617 3.034357,5.208599 5.765963,9.896338 6.070236,10.417198 l 0.553226,0.947018 -3.215417,0.0337 -3.215418,0.0337 0,17.296732 0,17.296731 -6.755395,0 -6.755395,0 0,-17.23356 z"
       id="path3046"
       inkscape:connector-curvature="0"
       transform="translate(0,980.3622)" />
    <path
       style="fill:#003399"
       d="m 11.752411,48.744701 0,-17.318594 -3.5986683,0.08835 c -1.9792676,0.04859 -3.5986684,0.0567 -3.5986684,0.01803 0,-0.03868 3.3360987,-5.922237 7.4135527,-13.074575 5.729363,-10.049983 7.446616,-12.96834 7.559089,-12.8461709 0.08004,0.086945 3.244204,5.4708529 7.031466,11.9642399 3.787261,6.493387 7.146412,12.246521 7.46478,12.784743 l 0.578851,0.978585 -2.693584,0 c -1.481471,0 -3.128315,0.03675 -3.659653,0.08166 l -0.966069,0.08166 0,17.280335 0,17.280334 -7.765548,0 -7.765548,0 0,-17.318596 z m 14.647212,-0.86415 0,-17.298862 2.115007,-0.01483 c 1.163254,-0.0082 2.660738,-0.05077 3.327743,-0.0947 l 1.212736,-0.07987 -6.765673,-11.586154 C 22.568315,12.433746 19.477189,7.235501 19.420266,7.2544752 19.305105,7.2928626 6.0714143,30.457884 6.0707329,30.622277 c -2.364e-4,0.05705 1.4769183,0.06287 3.282566,0.01293 l 3.2829961,-0.09079 0,17.317496 0,17.317495 6.881664,0 6.881664,0 0,-17.298863 z"
       id="path3048"
       inkscape:connector-curvature="0"
       transform="translate(0,980.3622)" />
    <path
       style="fill:#0083d7"
       d="M 51.667385,64.944701 C 51.362541,64.414036 47.967481,58.595993 44.122808,52.015714 40.278135,45.435435 37.132494,40.023227 37.132494,39.988585 c 0,-0.03464 1.619401,-0.06298 3.598668,-0.06298 l 3.598669,0 0,-17.298863 0,-17.298862 7.765548,0 7.765547,0 0,17.235728 0,17.235728 3.598669,0 c 1.979268,0 3.598668,0.02471 3.598668,0.05491 0,0.04248 -14.753624,25.962021 -14.820757,26.037481 -0.0087,0.0098 -0.265276,-0.416355 -0.570121,-0.947018 z m 7.274746,-12.527389 c 3.626817,-6.349582 6.595719,-11.58731 6.597559,-11.639396 0.0018,-0.05209 -1.474004,-0.0947 -3.279651,-0.0947 l -3.282996,0 0,-17.235728 0,-17.2357275 -6.881664,0 -6.881665,0 0,17.2177395 0,17.217741 -0.776137,0.08112 c -0.426875,0.04462 -1.908958,0.08112 -3.293518,0.08112 -1.58755,0 -2.501835,0.04568 -2.475291,0.123677 0.159496,0.468667 13.45289,23.090158 13.55288,23.063062 0.06945,-0.01882 3.093665,-5.229329 6.720483,-11.57891 z"
       id="path3050"
       inkscape:connector-curvature="0"
       transform="translate(0,980.3622)" />
    <path
       style="fill:#0083d7"
       d="m 15.562946,66.094946 c 2.130518,-0.0194 5.653425,-0.01941 7.828682,-2.8e-5 2.175257,0.01938 0.432106,0.03526 -3.873669,0.03527 -4.305775,1.6e-5 -6.085531,-0.01584 -3.955013,-0.03524 z"
       id="path3052"
       inkscape:connector-curvature="0"
       transform="translate(0,980.3622)" />
    <path
       style="fill:#0083d7"
       d="m 15.953488,66.113279 c 0.04196,-0.04196 0.150866,-0.04644 0.242016,-0.01 0.100729,0.04031 0.07081,0.07023 -0.07629,0.07629 -0.133108,0.0055 -0.207686,-0.02436 -0.165728,-0.06632 z"
       id="path3054"
       inkscape:connector-curvature="0"
       transform="translate(0,980.3622)" />
    <path
       style="fill:#0066cc"
       d="m 11.752411,48.718747 0,-17.344549 -3.5543279,0.06404 c -2.0777249,0.03743 -3.5262543,0.01707 -3.4867518,-0.04901 0.037167,-0.06218 1.7585599,-3.09616 3.8253177,-6.742179 6.805231,-12.00528 10.881059,-19.0281956 10.978732,-18.917071 0.05006,0.056955 8.442945,14.369743 11.981309,20.432299 l 2.984686,5.113898 -3.567367,0.07192 c -1.962052,0.03956 -3.581573,0.08217 -3.598935,0.0947 -0.01736,0.01253 -0.03157,7.807267 -0.03157,17.321642 l 0,17.298862 -7.765548,0 -7.765548,0 0,-17.34455 z m 14.647212,-0.824432 0,-17.2851 3.272615,-0.04547 c 1.799938,-0.02501 3.309599,-0.08245 3.3548,-0.127658 C 33.159017,30.304106 19.794616,7.4950481 19.466482,7.2922504 19.309063,7.1949598 6.0703031,30.245006 6.0703031,30.61638 c 0,0.08395 1.1185492,0.105818 3.2829958,0.06419 l 3.2829961,-0.06314 0,17.280989 0,17.280989 6.881664,0 6.881664,0 0,-17.285099 0,0 z"
       id="path3056"
       inkscape:connector-curvature="0"
       transform="translate(0,980.3622)" />
    <path
       style="fill:#0066cc"
       d="m 12.762564,47.691148 c 0,-9.479651 -0.04262,-17.243428 -0.0947,-17.25284 -0.05209,-0.0094 -1.444767,-0.05203 -3.0948475,-0.0947 l -3.0001457,-0.07759 4.4569692,-7.828682 c 3.959568,-6.954996 6.910452,-12.069216 7.996026,-13.8580305 0.200194,-0.3298779 0.408933,-0.599778 0.463866,-0.599778 0.127279,0 -0.360589,-0.819991 6.867442,11.5425385 l 6.207866,10.617683 -3.05114,0.07734 c -1.678127,0.04254 -3.093756,0.08515 -3.145842,0.0947 -0.05209,0.0096 -0.0947,7.801854 -0.0947,17.316228 l 0,17.298863 -6.755395,0 -6.755395,0 0,-17.235728 z"
       id="path3058"
       inkscape:connector-curvature="0"
       transform="translate(0,980.3622)" />
    <path
       style="fill:#0099ff"
       d="m 11.752411,48.703298 0,-17.36 -3.4611957,-0.03356 -3.4611961,-0.03356 6.5305748,-11.427351 C 18.426401,7.4849074 19.459249,5.7474998 19.598308,5.9917374 c 0.04913,0.086288 3.388491,5.7821736 7.420805,12.6575246 l 7.331483,12.500638 -1.607942,0.08031 c -0.884367,0.04417 -2.474462,0.08678 -3.533544,0.0947 l -1.925603,0.01439 0,17.361997 0,17.361997 -7.765548,0 -7.765548,0 0,-17.359999 0,0 z m 14.647212,-0.740705 0,-17.216819 1.155819,-0.08204 c 0.635702,-0.04512 2.013613,-0.08282 3.062025,-0.08377 1.048414,-0.001 2.035431,-0.03635 2.193372,-0.07866 0.284647,-0.07626 0.282296,-0.08594 -0.268101,-1.103129 C 31.280305,27.065066 22.809286,12.590016 20.39175,8.6348897 L 19.518852,7.2068143 19.23993,7.5566149 C 18.484291,8.504276 6.0703031,30.181846 6.0703031,30.553697 c 0,0.117546 0.7813704,0.154261 3.2829958,0.154261 l 3.2829961,0 0,17.235728 0,17.235728 6.881664,0 6.881664,0 0,-17.216821 z"
       id="path3060"
       inkscape:connector-curvature="0"
       transform="translate(0,980.3622)" />
    <path
       style="fill:#0000ff"
       d="m 12.813071,49.377864 c 0,-8.565846 -0.03722,-16.350334 -0.08271,-17.298863 l -0.08271,-1.724596 -1.400952,-0.0144 c -0.770523,-0.0079 -2.1148728,-0.05053 -2.9874438,-0.0947 l -1.5864927,-0.08031 5.1255755,-8.965104 c 5.8803,-10.285189 7.273888,-12.6774095 7.539701,-12.9425794 0.168812,-0.168404 0.213111,-0.1557867 0.399548,0.1137998 0.115328,0.1667619 3.024939,5.1101956 6.465801,10.9854086 l 6.256116,10.682206 -1.58416,0.08031 c -0.871287,0.04417 -2.242669,0.08678 -3.047516,0.0947 l -1.463355,0.0144 -0.0832,3.503966 c -0.04576,1.927182 -0.0833,9.74008 -0.08344,17.361997 l -2.45e-4,13.85803 -6.69226,0 -6.692261,0 0,-15.574265 0,0 z"
       id="path3254"
       inkscape:connector-curvature="0"
       transform="translate(0,980.3622)" />
    <path
       style="fill:#0000cd"
       d="M 51.172377,61.837269 C 50.053856,60.005676 45.298888,51.927167 41.300163,45.064751 l -2.354461,-4.04061 3.222395,-0.0337 3.222394,-0.0337 0,-17.296731 0,-17.2967315 6.692261,0 6.69226,0 0,17.2357275 0,17.235728 3.233371,0 c 2.666931,0 3.221879,0.02995 3.167778,0.170932 -0.09322,0.24293 -12.721414,22.346043 -12.839577,22.473097 -0.05371,0.05775 -0.577602,-0.680924 -1.164207,-1.641497 l 0,0 z"
       id="path3256"
       inkscape:connector-curvature="0"
       transform="translate(0,980.3622)" />
    <path
       style="fill:#0000cd"
       d=""
       id="path3258"
       inkscape:connector-curvature="0"
       transform="translate(0,980.3622)" />
    <path
       style="fill:#0000cd"
       d="M 46.397578,55.762928 C 43.209419,50.295619 39.856307,44.543891 38.946216,42.981311 l -1.654709,-2.841054 1.145303,-0.08057 c 0.629917,-0.04431 2.23911,-0.08693 3.575983,-0.0947 l 2.43068,-0.01413 0,-17.298863 0,-17.298862 7.702413,0 7.702413,0 0,17.235728 0,17.235728 2.493814,0.01253 c 1.371598,0.0069 2.95554,0.04951 3.519872,0.0947 l 1.026057,0.08217 -7.276376,12.776456 c -4.002007,7.027052 -7.308115,12.807189 -7.346906,12.844752 -0.03879,0.03756 -2.679024,-4.40496 -5.867182,-9.872268 l 0,6e-6 z m 7.114234,6.190311 c 2.723692,-4.614113 12.018595,-20.942787 12.018595,-21.113477 0,-0.138165 -2.028204,-0.257563 -4.375229,-0.257563 l -2.063592,0 -0.03202,-17.20416 -0.03202,-17.2041611 -6.913231,-0.032646 -6.913232,-0.032645 0,17.229069 0,17.229069 -0.536643,0.06619 c -0.295154,0.03641 -1.745787,0.08893 -3.223629,0.116728 -1.477842,0.02779 -2.71789,0.08144 -2.755663,0.119213 -0.03777,0.03777 0.0242,0.248282 0.137715,0.467797 0.89086,1.722733 13.270732,22.731589 13.395027,22.731589 0.02499,0 0.607253,-0.951753 1.293918,-2.115007 z"
       id="path3260"
       inkscape:connector-curvature="0"
       transform="translate(0,980.3622)" />
    <path
       style="fill:#4169e1"
       d="M 11.834934,48.631852 11.802919,31.301423 8.3788743,31.238288 4.95483,31.175154 7.7323725,26.313794 C 12.248718,18.409116 18.482271,7.6186032 18.984008,6.8367905 c 0.256272,-0.3993259 0.506819,-0.7235973 0.556771,-0.720603 0.04995,0.00299 3.373261,5.6140755 7.385132,12.4690705 l 7.294309,12.463626 -0.854586,0.07902 c -0.470024,0.04346 -2.033626,0.08608 -3.474671,0.0947 l -2.620083,0.01568 0,17.361997 0,17.361997 -7.701965,0 -7.701967,0 -0.03201,-17.33043 0,0 z m 14.678331,-0.643038 0,-17.215853 2.178142,-0.08262 c 1.197977,-0.04544 2.604299,-0.08367 3.125159,-0.08494 1.268872,-0.0031 1.358566,-0.07186 1.00525,-0.770507 C 32.124317,28.455655 23.366147,13.448565 20.350425,8.4652085 19.589551,7.2078944 19.506669,7.1140613 19.346627,7.3287868 18.513992,8.4459142 9.0633414,24.810368 6.7619283,29.120059 6.3642018,29.864853 6.0748027,30.532501 6.1188192,30.60372 c 0.051287,0.08299 1.2337507,0.129492 3.2924391,0.129492 l 3.2124097,0 0,17.235728 0,17.235728 6.944798,0 6.944799,0 0,-17.215854 z"
       id="path3262"
       inkscape:connector-curvature="0"
       transform="translate(0,980.3622)" />
    <path
       style="fill:#4169e1"
       d="m 50.417153,62.455328 c -0.983854,-1.647747 -4.31337,-7.321889 -7.398925,-12.609204 l -5.610101,-9.613302 0.567973,-0.07785 c 0.312386,-0.04282 1.597028,-0.07834 2.854761,-0.07895 1.257732,-6.32e-4 2.585097,-0.03693 2.949699,-0.08072 l 0.662913,-0.07963 0,-17.281275 0,-17.281274 7.702413,0 7.702413,0 0,17.217469 0,17.217468 0.852316,0.0805 c 0.468774,0.04427 1.818275,0.08152 2.998891,0.08278 1.180616,0.0013 2.352223,0.0363 2.603571,0.07787 l 0.456998,0.07559 -1.010002,1.785493 c -3.673602,6.494229 -13.283514,23.278619 -13.401166,23.406083 -0.109142,0.118243 -0.565798,-0.553367 -1.931754,-2.841054 l 0,0 z m 2.780231,0.125318 c 2.49952,-4.174821 12.333023,-21.498632 12.333023,-21.727247 0,-0.193114 -1.095759,-0.2712 -3.805695,-0.2712 l -2.634027,0 0,-17.235728 0,-17.2357276 -6.944348,0 -6.944348,0 -0.03202,17.2041606 -0.03202,17.204161 -2.209709,0.09549 c -3.329318,0.143871 -4.293148,0.228128 -4.293148,0.375303 0,0.303762 10.112048,17.593673 13.223245,22.609538 0.163126,0.26299 0.34882,0.445886 0.412652,0.406436 0.06383,-0.03945 0.480709,-0.680785 0.926391,-1.425184 z"
       id="path3264"
       inkscape:connector-curvature="0"
       transform="translate(0,980.3622)" />
    <path
       style="fill:#32cd32"
       d="M 12.862277,47.853732 C 12.812891,38.495616 12.74316,30.720078 12.707319,30.574759 12.644366,30.319513 12.545274,30.307722 9.7887325,30.2275 8.2193509,30.181826 6.9094115,30.118557 6.8777562,30.086902 6.7924382,30.001584 18.681566,9.2674042 19.225746,8.5524847 19.437878,8.2737937 19.486932,8.259001 19.644469,8.4262156 19.797587,8.5887394 23.802414,15.373157 30.564047,26.924634 l 1.773871,3.030458 -1.221322,0.07987 c -0.671726,0.04393 -2.022037,0.08655 -3.00069,0.0947 l -1.77937,0.01483 -0.08274,2.367546 c -0.04551,1.302149 -0.0829,9.115048 -0.0831,17.361996 l -3.57e-4,14.994452 -6.609134,0 -6.609135,0 -0.08979,-17.014757 0,0 z"
       id="path3581"
       inkscape:connector-curvature="0"
       transform="translate(0,980.3622)" />
  </g>
</svg>
